<svg width="25" height="18" viewBox="0 0 25 18" fill="none" xmlns="http://www.w3.org/2000/svg">
<mask id="mask0_879_519" style="mask-type:luminance" maskUnits="userSpaceOnUse" x="0" y="0" width="25" height="18">
<path d="M7.48193 16.2532C7.17919 16.2532 6.89358 16.0904 6.73895 15.8069C5.94045 14.3426 5.48193 12.6324 5.48193 10.8056C5.48193 5.39013 9.51137 1 14.4819 1C19.4525 1 23.4819 5.39013 23.4819 10.8056C23.4819 12.6324 23.0234 14.3426 22.2249 15.8069C22.0703 16.0904 21.7846 16.2532 21.4819 16.2532H7.48193Z" stroke="white" stroke-width="2" stroke-linecap="round"/>
<path d="M13.7873 6.51383C15.9637 6.09572 18.0373 7.67766 18.4211 10.0489C18.8049 12.4202 17.3529 14.6794 15.1765 15.0975C13 15.5156 0.694567 13.4544 0.694567 13.4544C0.694567 13.4544 11.6109 6.93195 13.7873 6.51383Z" fill="black"/>
<path d="M14.1344 8.6598C15.2177 8.45169 16.2603 9.24708 16.4514 10.4273C16.6424 11.6076 15.9123 12.7435 14.829 12.9516C13.7457 13.1598 4.63366 12.6976 4.63366 12.6976C4.63366 12.6976 13.0512 8.86791 14.1344 8.6598Z" fill="white"/>
</mask>
<g mask="url(#mask0_879_519)">
<path d="M26.4824 -6.44751H2.48242V19.7008H26.4824V-6.44751Z" fill="black"/>
</g>
</svg>
