<svg width="24" height="24" viewBox="0 0 24 24" fill="none" xmlns="http://www.w3.org/2000/svg">
<g clip-path="url(#clip0_2746_6457)">
<path d="M23.4845 9.126C23.1655 8.949 22.7775 8.96 22.4685 9.154L21.8115 9.566C21.9225 9.138 21.9995 8.699 21.9995 8.251C21.9995 6.92 21.4855 5.717 20.6665 4.79C21.0125 4.713 21.3715 4.612 21.7575 4.455C22.7945 4.034 23.4925 3.107 23.8915 2.415C24.1555 1.957 23.9175 1.373 23.4095 1.23C22.6405 1.012 21.4945 0.836 20.4575 1.257C19.5455 1.628 18.7655 2.489 18.2215 3.236C17.7515 3.098 17.2645 3 16.7505 3C14.6425 3 12.8325 4.257 11.9985 6.053L11.4255 4.753C11.1435 4.113 11.0005 3.435 11.0005 2.736V2C11.5535 2 12.0005 1.553 12.0005 1C12.0005 0.447 11.5535 0 11.0005 0H4.00054C3.44754 0 3.00054 0.447 3.00054 1C3.00054 1.553 3.44754 2 4.00054 2V2.736C4.00054 3.434 3.85754 4.113 3.57554 4.753L2.67954 6.786C2.30254 7.639 2.09054 8.54 2.02754 9.465L1.53054 9.153C1.22254 8.96 0.835535 8.95 0.514535 9.125C0.196535 9.301 -0.00146484 9.636 -0.00146484 10V19.5C-0.00146484 21.981 2.01754 24 4.49854 24H19.4985C21.9795 24 23.9985 21.981 23.9985 19.5V10C23.9985 9.636 23.8015 9.301 23.4825 9.125L23.4845 9.126ZM16.7505 5.001C18.5425 5.001 20.0005 6.459 20.0005 8.251C20.0005 8.889 19.8035 9.504 19.4565 10.031L18.0405 9.151C17.7185 8.95 17.3085 8.95 16.9855 9.151L14.7565 10.536L14.0965 10.126C13.7065 9.576 13.4995 8.928 13.4995 8.251C13.4995 6.459 14.9585 5.001 16.7505 5.001ZM4.51054 7.594L5.40654 5.561C5.80154 4.665 6.00153 3.715 6.00153 2.738V2.002H9.00154V2.738C9.00154 3.716 9.20153 4.665 9.59653 5.561L10.4925 7.594C10.7555 8.191 10.9145 8.818 10.9735 9.463L9.24454 10.537L7.01553 9.152C6.69353 8.951 6.28354 8.951 5.96054 9.152L4.00054 10.37V10.014C4.00054 9.175 4.17254 8.361 4.51054 7.594ZM2.00054 19.501V11.809L3.19954 12.561C3.52154 12.765 3.93353 12.766 4.25853 12.564L6.48753 11.179L8.71653 12.563C9.03853 12.764 9.44853 12.764 9.77153 12.563L12.0005 11.178L14.0005 12.42V19.501C14.0005 20.426 14.2825 21.285 14.7625 22.001H4.50054C3.12154 22.001 2.00054 20.88 2.00054 19.501ZM22.0005 19.501C22.0005 20.88 20.8795 22.001 19.5005 22.001H18.5005C17.1215 22.001 16.0005 20.88 16.0005 19.501V12.118L17.5135 11.179L19.7425 12.564C20.0665 12.767 20.4785 12.766 20.8015 12.561L22.0005 11.809V19.501Z" fill="black"/>
</g>
<defs>
<clipPath id="clip0_2746_6457">
<rect width="24" height="24" fill="white"/>
</clipPath>
</defs>
</svg>
