<svg width="18" height="20" viewBox="0 0 18 20" fill="none" xmlns="http://www.w3.org/2000/svg">
<path d="M6.1875 0L0 3.37068V10.8877L1.125 10.2748V4.74002L5.625 7.19143V9.66199L6.75 10.2748V7.19143L11.25 4.74002V6.91373L12.375 6.30088V3.37068L6.1875 0ZM6.1875 6.12852L4.63184 5.27627L8.70117 2.73868L10.5557 3.75372L6.1875 6.12852ZM3.41895 4.62511L1.81934 3.75372L6.1875 1.36934L7.49707 2.08753L3.41895 4.62511ZM7.875 10.8877L9 11.5005V11.491L12.375 13.3295V17.6865L9 15.8384V17.2173L12.9375 19.3623L18 16.5949V10.1216L12.9375 7.3638L7.875 10.1216V10.8877ZM13.5 17.6865V13.3295L16.875 11.491V15.8384L13.5 17.6865ZM12.9375 12.2666L9.69434 10.5047L12.9375 8.73314L16.1807 10.5047L12.9375 12.2666ZM7.875 12.257L3.9375 10.1121L0 12.257V17.3035L3.9375 19.4485L7.875 17.3035V12.257ZM4.5 17.7727V14.8521L6.75 13.6264V16.547L4.5 17.7727ZM1.125 16.547V13.6264L3.375 14.8521V17.7727L1.125 16.547ZM3.9375 13.7892L1.81934 12.6305L3.9375 11.4814L6.05566 12.6305L3.9375 13.7892Z" fill="black"/>
</svg>
