<svg width="16" height="16" viewBox="0 0 16 16" fill="none" xmlns="http://www.w3.org/2000/svg">
<g clip-path="url(#clip0_2746_6455)">
<path d="M14 0H5.33333C4.23067 0 3.33333 0.897333 3.33333 2V4H0V13.6667C0 14.9533 1.04667 16 2.33333 16H13.6667C14.9533 16 16 14.9533 16 13.6667V2C16 0.897333 15.1027 0 14 0ZM3.33333 13.6667C3.33333 14.218 2.88467 14.6667 2.33333 14.6667C1.782 14.6667 1.33333 14.218 1.33333 13.6667V5.33333H3.33333V13.6667ZM14.6667 13.6667C14.6667 14.218 14.218 14.6667 13.6667 14.6667H4.44133C4.58533 14.3633 4.66667 14.0247 4.66667 13.6667V2C4.66667 1.63267 4.966 1.33333 5.33333 1.33333H14C14.3673 1.33333 14.6667 1.63267 14.6667 2V13.6667ZM10 4H13.3333V5.33333H10V4ZM6 6.66667H13.3333V8H6V6.66667ZM6 9.33333H13.3333V10.6667H6V9.33333ZM6 12H13.3333V13.3333H6V12ZM8.66667 5.33333H6V2.66667H8.66667V5.33333Z" fill="black"/>
</g>
<defs>
<clipPath id="clip0_2746_6455">
<rect width="16" height="16" fill="white"/>
</clipPath>
</defs>
</svg>
